<?xml version="1.0" encoding="utf-8"?>
<!-- Generator: Adobe Illustrator 28.3.0, SVG Export Plug-In . SVG Version: 6.00 Build 0)  -->
<svg version="1.1" id="图层_1" xmlns="http://www.w3.org/2000/svg" xmlns:xlink="http://www.w3.org/1999/xlink" x="0px" y="0px"
	 viewBox="0 0 6725.3999023 2416.5524902" style="enable-background:new 0 0 6725.3999023 2416.5524902;" xml:space="preserve">
<style type="text/css">
	.st0{fill-rule:evenodd;clip-rule:evenodd;enable-background:new    ;}
</style>
<path d="M3356.4902344,3.0212581c-1.6154785,1.2156141-2.2241211,1.8813083-3.3901367,3.378742
	c-0.9001465,1.3000002-4.3000488,11.9000015-7.6999512,23.7000008C3313.9001465,139.4000092,3287.5,199.6999969,3254.5,237.5
	c-12.8000488,14.6000061-34.0998535,29.7000122-62.3000488,43.8999939c-34.7998047,17.6000061-70.5,31-137.2998047,51.7000122
	c-33,10.2000122-40.4099121,12.8204651-46,19.1000061c-3.3383789,3.3968506-2.9086914,5.8318481-1.7001953,8
	c4.6000977,6.8999939,12.0012207,11.2801208,46.2001953,20.6999817c64,19.6000061,102.2998047,34,136,50.8000183
	c42.7998047,21.2999878,62,37.1999817,82.5,68.2999878c20.0998535,30.5,39.2998047,74.7999878,59,136
	c3.8999023,12,5.1999512,16.2999878,14.0998535,47.5c6.8000488,23.6000366,6.9001465,23.7999878,11.1999512,27.6000366
	c3.1000977,2.6999512,4.1000977,3,7.6000977,2.5999756c7.3000488-1,9.5-4.7000122,16-28
	C3412.1999512,571,3443.1000977,503.3999939,3478.5,469.3999939c30.9001465-29.5999756,87.9001465-55.8999939,187.4001465-86.5
	c39.0998535-12,42.3779297-12.4543457,49.5-19.5999756c4.6999512-4.2000122,5.0998535-6.9000244,1.3999023-11.2000122
	c-4.1999512-5-15.7316895-10.7312622-45.8999023-19c-66.2001953-20.2999878-102.4001465-33.8999939-137.5-51.6000061
	c-43.1000977-21.7999878-62.7001953-39.0999908-84.5-74.5c-13.5-21.8999939-31-60.6999969-43.2001953-95.5
	c-4-11.5-15.6999512-47.2999954-17.0998535-52.5C3383,38.7000008,3374,9.1000004,3372.8000488,7c-1.8999023-3.2-7.3000488-7-10-7
	C3360.8349609,0.0968549,3358.1853027,1.9139342,3356.4902344,3.0212581z"/>
<path d="M2770.9001465,410.6000061c-1.1000977,0.2999878-8.9001465,2.1000061-17.4001465,4
	c-19,4.2999878-65.8000488,16.2000122-89.0998535,22.6000061c-4.1000977,1.1000061-9.3000488,2.5-11.5,3
	c-2.2001953,0.5-9.1000977,2.3999939-15.5,4.1999817c-6.3000488,1.8000183-18.2001953,5.2000122-26.5,7.6000061
	c-28.1000977,7.8999939-81.7001953,24.1000061-108,32.7000122c-153.6000977,50-243.3000488,90.7000122-332.5,150.5999756
	c-30,20.2000122-69.5,50.9000244-88.2001953,68.6000366c-8.8662109,8.1000366-7.9272461,5.7764282-5.2998047,22.0999756
	c4.6999512,24.4000244,15.5998535,40.4000244,41.6999512,61.1000366C2153.9001465,815,2207,840,2260.4001465,853.9000244
	c21.7998047,5.5999756,42.6999512,9.7999878,69,13.7000122c16.5998535,2.5,75,3.1999512,80.2998047,1
	c2.1000977-0.8000488,3.7001953-1.9000244,3.7001953-2.5c0-1.6000366-6.2001953-5.8000488-13.2001953-9
	c-3.5998535-1.7000122-18-7.8000488-31.8999023-13.6000366c-27-11.2999878-32.6999512-14.3999634-38.3000488-20.5
	c-4.8000488-5.3999634-6.1999512-8.3999634-8-17.5999756c-0.8000488-4.2999878-1.8000488-8.7000122-2.0998535-9.7000122
	c-1.4001465-3.4000244-3.2243652-4.347168-18.4001465,1.0999756C2294.6000977,799,2285.1000977,802,2280.4001465,803.4000244
	C2275.6999512,804.7999878,2266.5,807.5,2260,809.5c-6.5998535,1.9000244-12.0998535,3.4000244-12.3000488,3.2000122
	c-1-1,38.1000977-20.7999878,64.2001953-32.5c35.7998047-16,90-36,119.5-44.0999756
	c4.0998535-1.2000122,10.6999512-3,14.5-4.1000366c16.2998047-4.5999756,41.3999023-10.7999878,61-15
	c5-1.0999756,13.2998047-2.8999634,18.5-4c11.5998535-2.5,31.7998047-6.5999756,42-8.5
	c4.0998535-0.7000122,12.6999512-2.2999878,19-3.5c10.5998535-2,28.2998047-4.8999634,50.5-8.5
	c35.5-5.7000122,93.1999512-12.7999878,145.5-18c2.5-0.2000122,11-1.0999756,19-1.8999634c8-0.9000244,23.6999512-2.5,35-3.7000122
	c11.2998047-1.1000366,25.6999512-2.7000122,32-3.5c6.2998047-0.7999878,15.0998535-1.9000244,19.5-2.5
	c28.1999512-3.5,102.1999512-20.2999878,105.8999023-24c1-0.9000244-7.3000488-25.1000366-11.5-33.7000122
	c-2.1999512-4.5-5.8999023-10.2999878-8.3000488-12.7000122c-3.8999023-4.0999756-4.6999512-4.5-9-4.5
	c-5.5998535,0-11-2.0999756-15.0998535-5.8999634c-1.6000977-1.5-6.7001953-5.4000244-11.2001953-8.6000366
	c-15.1999512-10.7000122-33.7998047-29.7000122-47-48C2884.6000977,515.6000366,2875,500.2000122,2859,473
	c-16.5998535-28.1999817-22.8999023-37.2999878-31.8000488-45.5c-12-11.1000061-25.2998047-16.2999878-43.7998047-17
	C2777.6000977,410.3000183,2772,410.3000183,2770.9001465,410.6000061z"/>
<path d="M3933.9001465,410.6000061c-21.4001465,5-30.3000488,10-42.3000488,23.7999878
	C3885.8000488,441,3879.4001465,451,3860.9001465,482.5c-21.4001465,36.2999878-34.3000488,54.2000122-50.8000488,70.7999878
	c-8.8000488,8.8000488-20.4001465,18.6000366-27.6999512,23.3000488c-2.5,1.5999756-6,4.2999878-7.9001465,6.0999756
	C3771.1999512,585.7999878,3765.1000977,588,3759.9001465,588c-4.3000488,0-8,2.7999878-12.3000488,9.5
	c-6.4001465,9.6000366-17.6000977,39.6000366-15.5,41.5c1.3000488,1.2000122,37.3000488,10.7000122,54.8000488,14.5
	c29.7998047,6.4000244,61,11,104.5,15.4000244c74,7.5,96.2998047,9.8999634,111,11.7000122
	c25.0998535,3,44.8999023,5.5999756,64.5,8.3999634C4098.5,693.6000366,4104,694.5,4140.8999023,701
	c14.1000977,2.5,63.9003906,12.4000244,72.800293,14.5c3.3999023,0.7999878,11.3999023,2.6000366,17.699707,4
	c14.7001953,3.4000244,38.2001953,9.2000122,44,10.9000244c2.5,0.7000122,8.1000977,2.3999634,12.5,3.5999756
	c31.5,8.9000244,72.800293,23.4000244,106,37.2999878c29.800293,12.4000244,87.300293,40.6000366,82.7001953,40.7000122
	c-1.7998047,0-36.6000977-10.3999634-61.7998047-18.5c-3.2001953-1-4.7001953-1.0999756-6.4003906-0.2000122
	c-2.5,1.3000488-3.0996094,2.8000488-5,12.7000122c-1.8999023,10.5-6,16.7999878-14.5,22.4000244
	c-2.8999023,2-19.0996094,9.3999634-36,16.5c-33.0996094,13.8999634-40,17.5-40,20.5999756
	c0,3.9000244,7.2001953,4.6000366,39,4.2000122c29.7001953-0.5,43.800293-1.7999878,70.300293-6.7000122
	c75.6000977-13.8999634,141.5-41.2999878,187-78c23.2998047-18.7000122,33.8999023-34.3999634,39.199707-57.7999878
	c3.5332031-19.0991821,3.5966797-16.0275879-6.0996094-24.5999756c-4.5-4.2000122-14.1000977-12.5-21.300293-18.5
	c-66.199707-54.4000244-141.2998047-99.7000122-225.1000977-135.8000488
	c-65.5-28.1999512-162.2998047-61.9999695-254.199707-88.6999817C4108.800293,450,4096.1000977,446.3999939,4086.9001465,444
	c-1.6000977-0.3999939-14.7001953-3.8999939-29-7.7999878c-30.8000488-8.3000183-50.5-13.3000183-79-20.3000183
	c-17.5-4.2999878-22.8000488-5.1999817-32-5.5C3940.9001465,410.3000183,3935,410.3000183,3933.9001465,410.6000061z"/>
<path d="M602.9000244,464c-125.3000183,7-242.3000183,51.7999878-344.0000305,131.9000244
	C221.6999969,625.2000122,180.3000031,666.7000122,150.3000031,705C82,792,33.7999992,898.1000366,13,1007
	c-9.8999996,52.4000244-13,86-13,141c0,60.9000244,4.3000002,101.3000488,17,159.7000732
	C37.6000023,1402.5,80.5,1496.5999756,138.6999969,1575c73.9000092,99.5999756,174.1999969,176.5,284.7000122,218.5999756
	c27.2000122,10.3000488,72.9000244,23.6000977,93.8999939,27.4000244
	c60.1000366,10.7000732,102.3000488,13.5999756,161.6000366,11.0999756
	c116.5999756-4.8999023,212.7000122-22.8999023,302-56.6999512c78.6999512-29.6999512,150.3000488-73,195.0999756-117.9000244
	l9.0999756-9.0999756l0.6000977-16c0.3999023-8.6999512,0.6999512-73.0999756,0.6999512-142.9000244
	c0-86.0999756,0.4000244-129.9000244,1.0999756-136c2.8000488-23.0999756,13.8000488-44.4000244,31.8000488-61.7999268
	c16-15.5,30.2999268-23.5,57.1999512-32.2000732c24.7000732-8,28.7000732-9.4000244,34.9000244-12.5
	c7.0999756-3.5999756,9.0999756-5.9000244,9.6999512-11.4000244c0.5-3.7999268,0.2000732-4.7999268-2-7L1316.5,1226
	l-328.7047729-0.005249l-329.4686279-0.0423584L654.9000244,1229c-3.6000366,3.4000244-4.7999878,6.7000732-4,11.7000732
	c1.5999756,10.7999268,13.5999756,16.1999512,68,30.3999023c32,8.4000244,61.3999634,20.6000977,80.5,33.4000244
	c31.2000122,21,54.0999756,49.5,63.7999878,79.5c5.7999878,18,5.7000122,14.4000244,5.7000122,137.5
	c0,121.5999756-0.5,137.5-5.6000366,168.5c-6.5999756,39.7000732-16.5,53.7000732-42.6999512,60.2000732
	c-8.1000366,2-11.1000366,2.1999512-42.2000122,2.1999512c-31.7999878,0-34.2999878-0.1999512-49.5-2.6999512
	c-54.7999878-9.3000488-101.6000366-30.8000488-148.4000244-68c-14.7000122-11.8000488-40.5999756-36.9000244-53.8999634-52.2000732
	C453.8999939,1545.2000732,403.5,1426.8000488,384.5,1295.5c-7.1000061-49.1999512-8.6000061-71-8.6000061-128
	c0.1000061-56.1999512,1.8000183-82,8.6000061-128c3-20.5999756,9.3999939-54.7999878,11.8999939-64.5
	c0.5-1.8999634,2.5-9.7999878,4.5-17.5c1.9000244-7.7000122,3.7000122-15.0999756,4.1000061-16.5
	c3.6000061-14,17.5-56.2999878,23.8999939-72.5c63-160,169.1000061-265.8999634,290.5000305-290.0999756
	c18.2999878-3.6000366,30.2000122-4.7000122,52-4.7000122c28.2999878,0,49.3999634,2.9000244,75.2999878,10.2999878
	c31.5,9.1000366,66.7000122,26.4000244,95.0999756,46.7999878c31.4000244,22.6000366,62.8000488,53.6000366,89.1000366,87.7000122
	c46,59.7999878,82.4000244,135.2000122,106.5999756,221c3.4000244,12.1000366,7.2000732,24.2000122,8.4000244,27
	c9.1999512,20.7000122,19.0999756,2.2000122,24.4000244-45.5c9.6999512-87.5999756,11.2999268-235,3.0999756-286.7999878
	c-2.1999512-14.5999756-5.1999512-24.0999756-8.3000488-26.9000244c-2-1.8999634-3.8999023-2.0999756-20.6999512-2.5999756
	c-38.8000488-1.0999756-75.5-8.7999878-112.1999512-23.5c-21.9000854-8.9000244-53.3000488-23.7999878-91.8000488-43.9000244
	C862,496.3999939,785.5,474.1000061,695.9000244,466.1000061C670.6000366,463.8000183,625,462.8000183,602.9000244,464z"/>
<path d="M6680.3999023,545.1000366c-16.7998047,3.6999512-37.699707,8.3999634-46.5,10.3999634
	c-8.7998047,2-19.8999023,4.5-24.699707,5.5c-4.8999023,1.1000366-12.800293,2.9000244-17.800293,4
	c-4.8999023,1.1000366-13,2.9000244-18,4c-4.8999023,1.1000366-12.8999023,2.9000244-17.699707,4
	c-4.8999023,1.1000366-28.3999023,6.2000122-52.300293,11.5c-23.8999023,5.2000122-45.5,10-48,10.6000366
	c-2.5,0.5999756-11.5,2.5999756-20,4.5c-8.5,1.8999634-17.2998047,3.7999878-19.5,4.2999878
	c-3.699707,0.8999634-8,1.8999634-31.5,7.0999756c-4.8999023,1.1000366-13,2.9000244-18,4
	c-4.8999023,1.1000366-12.8999023,2.9000244-17.699707,4c-4.8999023,1.1000366-28.3999023,6.2000122-52.300293,11.5
	C6272.5,635.7999878,6249,640.9000244,6244.2001953,642c-21.8999023,5-27.300293,6.2000122-42.300293,9.5
	c-54.699707,12.2000122-55.0996094,12.2999878-59.0996094,16c-4,3.7999878-4.5,7.9000244-1.4003906,11.7999878
	c2.2001953,2.8000488,8.300293,5,24.5,9.1000366c36,8.8999634,52.4003906,16.5,69.5,32.3999634
	C6253.800293,737.7999878,6265.5,759,6271,785l2.3999023,11.5v238.8000488c0,131.4000244-0.3999023,238.6999512-0.7998047,238.5
	C6272.2001953,1273.5999756,6252.5,1257.3000488,6229,1237.5c-23.6000977-19.7999268-85.699707-71.9000244-138-115.7999268
	c-208.7998047-175.3000488-312.3999023-262.3000488-364-305.6000366c-29.699707-25-53.6391602-45.6437378-54.2392578-45.6437378
	c-0.5,0-6.1606445,1.0437012-11.3608398,1.843689c-5.199707,0.9000244-15.5996094,2.5-23,3.6000366
	c-13.699707,2-30.699707,4.5-55,8.2000122c-30.199707,4.5-51.2998047,7.5999756-74,10.8999634c-8,1.2000122-20.0996094,3-27,4
	c-11.2998047,1.7000122-20.0996094,3-51,7.5c-5.199707,0.7999878-14.5996094,2.1000366-20.8999023,3
	c-12.699707,1.7999878-16.199707,3.1000366-17.8999023,7c-2.8999023,6.2999878-0.1000977,12.9000244,7.1000977,16.4000244
	c2.5,1.2000122,12.1000977,4,21.2998047,6.2000122c27.7001953,6.5999756,35.3999023,8.8999634,45,13.2999878
	c12.8999023,6.0999756,19.800293,10.7999878,29.300293,20c13.8999023,13.5,22.3999023,28,27.8999023,47.5l2.699707,9.5999756V1277
	v347.5l-2.2998047,10.4000244C5516.5,1666.3000488,5501.2001953,1693.5999756,5478.300293,1715.5
	c-14.9003906,14.2000732-25.800293,21.2000732-56,35.8000488c-22.5,10.9000244-28.300293,14.7999268-29.4003906,19.6999512
	c-1.2480469,3.7321777-0.3725586,7.5358887,8.5400391,11.0053711C5409.800293,1782,5409.800293,1782,5685.3999023,1782
	C5961,1782,5961,1782,5969.3706055,1782.0372314c9.2944336-1.8143311,11.8222656-11.4692383,3.8359375-17.7453613
	c-5.5068359-4.2493896-13.6064453-7.4918213-26.5063477-13.7918701c-25.300293-12.2999268-38.300293-20.2999268-50.5-31.1999512
	c-25.800293-22.9000244-43.300293-53.5999756-49.800293-87.0999756c-2-10.1000977-2-15-2-282.5c0-149.7000732,0-272.6000977,0-273
	c0-0.4000244,3.300293,2.0999756,7.300293,5.5c3.8999023,3.5,61.3999023,51.7999268,127.699707,107.5
	c66.300293,55.5999756,159.4003906,133.7999268,207,173.7999268l86.5,72.5999756l0.7001953,19.2000732
	c3.8999023,109.9000244,33.2001953,201.6999512,88.6000977,277.5c14.5,20,24.8999023,32,45.199707,52.2999268
	c37.1000977,37.1000977,77.300293,65.7000732,124.5,88.5c23.4003906,11.3000488,30.7202148,14.3955078,41.0200195,14.4956055
	c7.7001953,0,8.4799805-0.7955322,11.4799805-3.5955811c1.7001953-1.5999756,3.800293-5.1999512,4.800293-8
	c1.5722656-5.1431885,2.0859375-5.8474121,2.2050781-29.7200928c-0.0717773-26.8806152-0.40625-116.616333-0.0053711-551.2799072
	l0.5-576l2.2001953-9.5c9.3999023-40.3999634,30.6000977-77.0999756,61.2001953-106.2999878
	c10.2998047-9.7999878,21.3999023-18.2999878,44.0996094-34.0999756c20.9003906-14.6000366,26-19.6000366,26-25.9000244
	c0-3.9000244-2.8999023-5.7000122-9.0996094-5.5999756C6713.300293,538.2000122,6697.2001953,541.2999878,6680.3999023,545.1000366z
	"/>
<path d="M3311.4001465,771.6000366c-1.9001465,0.1999512-9.8000488,1.0999756-17.5,1.8999634
	c-100.6000977,10.9000244-188.3000488,64.1000366-236,143c-17.6000977,29.1000366-28.7001953,59.9000244-34.7001953,95.9000244
	C3021.4001465,1023.5,3021,1029.5,3021.1000977,1052c0,27.8000488,1.5,43.7000732,6.3999023,67
	c12.9001465,61.3000488,40.9001465,114.5999756,81.9001465,156c23.7998047,24.0999756,51.0998535,44,192.5,140.5
	c118.2998047,80.7000732,162.5,111.5999756,176.6999512,123.5c27.8999023,23.3000488,44.1999512,48.7000732,50.3000488,78.5
	C3532.5,1634.9000244,3530.5,1667.5,3524.5,1688.3000488c-13.0998535,45.2999268-46.3000488,78.9000244-93.1999512,94
	c-17.1000977,5.5999756-28.6999512,7.1999512-49.3999023,7.0999756c-72-0.5-140-22.9000244-199.1000977-65.4000244
	c-22-15.9000244-50.8000488-42.5999756-70.1000977-65c-30.5998535-35.5-55.8999023-74-87.2998047-132.5
	c-15.9001465-29.5999756-21.3000488-38.7999268-25.2001953-42c-3.1367188-3.1870117-2.7070312-2.972168-4.2998047-1.2999268
	c-1.9001465,2-4.2001953,13.2999268-6.7001953,33.7999268c-2.0998535,17.0999756-2.2998047,22.4000244-2.2998047,69.5
	c0,54.3000488,0.7998047,66.4000244,6.5,103c10.5,67.8000488,30.1999512,118,59.1999512,150.8000488l5.6999512,6.4000244
	l12.5-6.2000732c17.3000488-8.6999512,27.8999023-11.0999756,53.3999023-12.4000244
	c34-1.5999756,39-0.7999268,96.7001953,16.2000732C3271.5,1859.2000732,3321.8000488,1866,3382.1999512,1866
	c81.6000977,0,145.8000488-13.1999512,200.6000977-41.2999268C3660.3000488,1785,3710.1000977,1714.5,3727.5,1620
	c4.8000488-26.2999268,6.3000488-45,6.3000488-77.5c0-32.4000244-1.1000977-46.2999268-5.6000977-71
	C3715.9001465,1403.5999756,3686,1350.7000732,3628.8000488,1295c-27.5-26.6999512-66.8000488-55-235.8999023-170
	c-130.6000977-88.7999268-132.7001953-90.2999268-149.5-107.0999756C3224.6999512,999.2000122,3213,979.7000122,3207.9001465,959
	c-4.9001465-20.3999634-2.8000488-46.5999756,5.3999023-66c12.3999023-29.7000122,35.3999023-48.5999756,71.6000977-58.7999878
	c16.3999023-4.7000122,26.3999023-5.7000122,56.5-5.7000122c29.8999023,0,38.5,0.7999878,59.5,5.6000366
	C3445.8000488,844.5,3481.6000977,864.9000244,3512,897.5c18.1000977,19.2999878,31.6999512,39.4000244,51.3000488,75.7999878
	c14.5,26.9000244,14.3999023,26.8000488,42.1000977,45.1000366c44.3999023,29.5,94,55.5999756,105.3999023,55.5999756
	c7.6999512,0,5.8999023-16.5999756-5.5-49.5999756c-5.6000977-16.5-26-68.2000122-37.6000977-95.4000244
	c-13.8999023-32.5999756-30.7998047-65.2000122-52.7998047-101.5C3604.3000488,809.9000244,3591.6000977,790,3591,790
	c-0.1999512,0-3.3000488,1.4000244-7,3c-10.0998535,4.6000366-23.8999023,7.2000122-38.5998535,7.2999878
	c-15.5,0.2000122-26-1.5-70.5-10.7999878c-66-13.8999634-93.3000488-17.5-134-18
	C3326.6000977,771.2999878,3313.3000488,771.4000244,3311.4001465,771.6000366z"/>
<path d="M1263,894.2999878c-1.0999756,0.8000488-1.6999512,2.1000366-1.2999268,3
	C1262,898.1000366,1268,903.2000122,1275.0999756,908.6000366c41.7000732,31.8999634,55.5,46.0999756,66.8000488,68.8999634
	c9.8000488,19.7999878,15,38,19.6999512,68.9000244c2.2000732,13.9000244,2.2000732,16.5,2.7000732,191.1999512
	l0.5999756,177.1000977l14.4000244-13.4000244c50.0999756-46.5999756,107.5999756-86.0999756,173.7999268-119.5999756
	L1573.4000244,1271.5v-105c0-84.5,0.3000488-106,1.4000244-110c4.7999268-18.1999512,20.0999756-31.5999756,39.2999268-34.5
	c11.6000977-1.7999878,164-0.7000122,176.3000488,1.2999878c51.9000244,8.1000366,95.5999756,37.000061,130.6999512,86.2999878
	c17.3000488,24.2000732,34,57.2000732,42.8000488,84.1000977c0.9000244,2.8999023,2,5.5,2.5,5.7999268
	c1.3000488,0.8000488,5.9000244-5.2999268,6.9000244-9.2999268c1.9000244-7.1000977,2.2999268-19.9000244,1.1999512-43.2000732
	c-2.2999268-48.5-8.4000244-84.5999756-23.1999512-137.5c-4.3000488-15.2000122-13.9000244-45.7999878-17.0999756-54.2999878
	L1932.3000488,950h-72.7000732c-87.6999512,0-190.0999756-2.2000122-235.6999512-5
	c-8.8000488-0.5999756-24.3000488-1.3999634-34.5-2c-55.6999512-3-102.8000488-8.5999756-159.5-19
	c-6-1.0999756-14.5999756-2.7000122-19-3.5c-17.5-3.2000122-49.3000488-9.7000122-75.5-15.5
	c-39.4000244-8.7000122-52.0999756-11.0999756-61.5-11.7000122C1266.9000244,892.9000244,1264.5,893.1000366,1263,894.2999878z"/>
<path d="M2037.0949707,950c0,0-1.6949463,4.7000122-1.6949463,7.6000366c0,8.5999756-0.0999756,8.5,33.9000244,24.5999756
	c6.6000977,3.2000122,18.1000977,12.7999878,23.8000488,20c9.8000488,12.2999878,16.5998535,27.2999878,20.1999512,44.7000122
	l2.1000977,10V1365.5v308.5999756l-2.1000977,10c-4.5,21.6000977-13.1000977,38.4000244-26.8999023,51.9000244
	c-7.5,7.3000488-14.5,11.7000732-31.4001465,19.5c-18.0999756,8.3000488-20.0999756,10.3000488-19.4000244,19.5999756
	c0.2000732,3.5,0.8319092,4.8947754,2.8319092,5.8947754c7.5229492,0,40.3129883-0.0079346,182.7453613-0.0079346
	c177.2426758,0.0006104,181.145752-0.0119629,181.145752-0.0119629s2.0651855-1.9337158,2.0651855-6.4694824
	C2404.4118652,1767.4390869,2404,1767.3000488,2401,1764.5c-1.8999023-1.6999512-8.6999512-5.5999756-15.1999512-8.5
	c-6.6000977-2.9000244-13.8999023-6.4000244-16.3999023-7.7999268c-13.3000488-7.5-25.8000488-20.9000244-33.2001953-35.6000977
	C2331.1000977,1702.4000244,2328.8000488,1696,2326.1000977,1684c0,0-2.0927734-14-2.1000977-19.2851562
	c-0.0073242-5.2850342-0.3000488-209.2148438-0.3000488-209.2148438C2323.5,1335,2323.5,1226.8000488,2323.6000977,1215
	l0.3000488-21.4000244l21,26.9000244C2356.5,1235.4000244,2375.6999512,1259.9000244,2387.5,1275s30.3000488,38.7000732,41,52.5
	c10.6999512,13.7000732,29.1999512,37.4000244,41,52.5c45.1999512,57.8000488,54.9001465,70.2000732,73.8000488,94.5
	c10.6999512,13.7000732,27.6000977,35.3000488,37.5,48c19.8000488,25.3000488,34.8999023,44.5999756,77.6999512,99.5
	c15.6999512,20.0999756,36.6000977,46.8000488,46.5,59.5c38.8000488,49.7000732,51.1000977,65.4000244,59.1999512,76
	c13.8000488,17.9000244,24.5,30,43.1000977,48.5c24.8000488,24.7000732,43.1999512,38,68.1000977,49.0999756
	C2892.6999512,1862.8000488,2919.6999512,1871,2927.8000488,1871c4.5,0,8-3.0999756,7-6.2999268
	c-1.1999512-3.9000244-4.1999512-9.1000977-9.3999023-16.2000732c-14.8000488-20.2999268-34.2001953-69.5999756-43-109.5
	c-5.8000488-26-9.6000977-59.0999756-11.1000977-96c-0.6000977-17.1999512-0.8999023-125.7999268-0.6999512-309L2871,1051.5
	l2.8000488-10c3.3000488-12,9.8999023-26.3999634,16-34.8999634c2.5-3.5,8-9.5,12.1999512-13.5
	c6.9001465-6.4000244,9.8000488-8.3000488,25.8000488-16.1000366c10-4.7999878,19.1999512-9.8999634,20.5-11.2999878
	C2955.3974609,956.2971191,2948.458252,950,2948.458252,950h-182.0581055h-182.1274414c0,0-7.2573242,7.0610352-0.2727051,15
	c2.9001465,3.4000244,5.6000977,4.9000244,22,12.6000366c13.8000488,6.3999634,21.1999512,11.3999634,29,19.5
	c7.6000977,8.0999756,11.6000977,14,16.4001465,24.1999512c5.1999512,11.1000366,8.5,23.1000366,9.8999023,35.500061
	c0.8000488,7.1999512,1.1000977,70.0999756,1.1000977,209.4000244v199.0999756l-3.8000488-4.9000244
	c-2.1000977-2.6999512-16.8000488-21.5999756-32.6999512-41.9000244c-15.9001465-20.4000244-34.3000488-44-41-52.5
	c-6.7001953-8.5-25.1000977-32.1999512-41-52.5c-15.9001465-20.4000244-34.3000488-44-41-52.5
	c-6.7001953-8.5-26.7001953-34.1999512-44.5-57c-17.8000488-22.7999268-45.2001953-57.9000244-60.9001465-78
	c-31.5-40.2999268-58.8000488-75.1999512-106-135.7999878L2260.1000977,950h-111.1999512
	C2063.8000488,950,2037.0949707,950,2037.0949707,950z"/>
<path d="M3769.503418,949.9848022c0,0-6.8435059,6.9171143-0.503418,15.0151978
	c2.9001465,3.4000244,5.6000977,4.9000244,22,12.6000366c13.8000488,6.3999634,21.1999512,11.3999634,29,19.5
	c7.6000977,8.0999756,11.6000977,14,16.4001465,24.1999512c5.2998047,11.4000854,8.7998047,24.2999878,10,37.2000122
	c1.3999023,15.3000488,1.3999023,599.2000732,0,619.3000488c-2.9001465,40.2999268-15.9001465,77.7999268-39,112.5
	c-13.7001953,20.5-20.5,28.4000244-46.1000977,53.7999268C3748,1857.3000488,3737.4001465,1868.5,3737.4001465,1869.5
	c0,4.3000488,50.3999023-1.2999268,77.5-8.6999512c23.3999023-6.3000488,46.5-14.4000244,88-30.8000488
	c83.3999023-32.9000244,134.8999023-45,204.4997559-48c23.7001953-1.0999756,25.6000977-1.2999268,27.300293-3.1999512
	c1-1.2000732,1.699707-3.7000732,1.699707-6.0999756c0-6.3000488-5.5-10.9000244-22-18.2000732
	C4107,1751.2000732,4098,1746.4000244,4094.4001465,1743.9000244C4077.1000977,1731.7000732,4064.6000977,1712,4058.3000488,1687
	l-2.3999023-9.5V1578v-99.5l2.7998047-6.5c5.7001953-13.5999756,16.9001465-23.7999268,30.5-28
	c6.3000488-2,9.6003418-2,134.6999512-2c125.7001953,0,128.4003906,0,134.800293,2
	c17.2998047,5.3000488,29.8999023,20.2000732,32.699707,38.5999756C4393,1492.7000732,4392.1000977,1673.2000732,4390.5,1681.5
	c-5.199707,26.3000488-18.199707,48.5999756-35.5,61c-3.2998047,2.4000244-13.6000977,8-22.8999023,12.4000244
	c-18.5,9-20.7001953,11-20.7001953,18.6999512c0,0-0.4204102,6.2089844,2.9775391,7.3867188
	c3.8154297,0.0159912,364.0541992,0.0159912,364.0541992,0.0159912l1.3686523-2.2026367
	c0.8999023-1.2000732,1.5996094-4,1.5996094-6.2000732c0-7.9421387-5.6660156-11.2893066-22.0664062-18.5893555
	c-14.699707-6.5999756-21.6333008-10.5106201-29.7333984-18.3105469C4618,1724.5,4608.800293,1707.8000488,4603.7001953,1689
	l-2.800293-10.5v-313v-313l2.4003906-9c6.199707-23.7000122,16.199707-40.5,31.5-53.0999756
	c3.5996094-3,12.8999023-8.4000244,24-13.9000244c14.5996094-7.2000122,16.3691406-6.8500977,20.3999023-12.3999634
	c2.6000977-4,2.8999023-8.7000122,0.6000977-11.9000244l-1.5-2.2000122h-363.8232422
	c-1.8540039-0.0151978-3.0771484,3.8700562-3.0771484,7.4000244c0,7.5999756,3.7001953,10.7999878,23,19.5
	c14.5,6.5999756,21.9003906,11.3999634,29.6000977,19.2999878C4378.8999023,1011.5,4388.1000977,1031.5,4390.8999023,1055
	c1.9003906,14.9000244,2.2001953,191.9000244,0.4003906,203.3000488
	c-2.9003906,18.7999268-16.300293,33.4000244-35.4003906,38.7999268c-4.199707,1.2000732-25.7998047,1.4000244-132,1.4000244
	c-120.8999023,0-127.2998047-0.0999756-133.7998047-1.9000244c-17.3000488-4.6999512-31-20.0999756-33.8000488-37.7999268
	c-0.6000977-4.0999756-0.8999023-43.3000488-0.6999512-106.9000244L4056,1051.5l2.6999512-9.5999756
	c5.6000977-20.1000366,13.6000977-34.7000122,25.3000488-46.1000366
	C4092.8000488,987.2000122,4095.4001465,985.5,4113.8999023,976.5c9.4003906-4.5,13.9760742-5.1193237,19.300293-10.7999878
	c2.8881836-4.1668091,4.3325195-9.5620728,2.1958008-13.369751L4133.3999023,950H3951.5
	C3776.6999512,950,3769.503418,949.9848022,3769.503418,949.9848022z"/>
<path d="M4811.6000977,952.2999878c-1.2998047,1.4000244-2.2001953,3.6000366-2.2001953,5.6000366
	c0,6.5999756,7.5,10.7000122,31.5,17.0999756c34.5,9.2000122,45.4003906,13.5,61.5,24.2999878
	c22.300293,15,37.300293,36.7999878,40.7001953,59.4000854C4945,1071.7000732,4944.5,1670,4942.6000977,1677
	c-6.8999023,24.7000732-22.3999023,44.2000732-46.2998047,58.3000488c-12.9003906,7.5999756-25.800293,12.5-48.9003906,18.6999512
	c-24,6.4000244-33.5996094,10.0999756-36.3999023,14.2000732c-2.5,3.5-2,8.2999268,1,10.6999512L4814.7001953,1781h240.699707
	h240.7001953l2.7001953-2.0999756c3-2.4000244,3.5-7.1999512,1-10.6999512
	C5297,1764.0999756,5287.2001953,1760.3000488,5263.3999023,1754c-24.699707-6.5999756-41.2998047-13.4000244-55.199707-22.6999512
	c-15.300293-10.2000732-29.800293-27.3000488-36-42.5999756c-6.1000977-15.1000977-5.800293,3-5.800293-322.9000244
	c0-206.0999756,0.300293-300.0999756,1.1000977-305.5c2.3999023-17.7000732,9.800293-32,23.8999023-46.4000244
	c16.7001953-17.1000366,35-27,64-34.9000244c35.1000977-9.7000122,40.800293-11.7000122,44-15.7999878
	C5302.1000977,959.7999878,5302,954.6000366,5299.2001953,952L5297,950h-241.6000977h-241.699707L4811.6000977,952.2999878z"/>
<path d="M1796.4000244,1245.5999756C1655.9000244,1259,1491,1330.2000732,1383.5,1423.7000732
	c-54.9000244,47.7999268-106.7999268,113.5999756-141.5999756,179.6999512
	c-7.5,14.0999756-17.6999512,35.8000488-17.0999756,36.3000488c0.1999512,0.1999512,7.2999268-4,15.6999512-9.5
	c19.8000488-12.6000977,31.2000732-19.5,53.4000244-32.2000732c18.3000488-10.4000244,68.5-37,69.9000244-37
	c0.4000244,0,0.5999756,15.4000244,0.2999268,34.2000732c-0.2999268,29.5-0.6999512,35.7999268-2.5,44.7999268
	c-7.2999268,37.0999756-22.5999756,69.7000732-46.6999512,99.5c-14.9000244,18.3000488-42.8000488,45-70.8000488,67.4000244
	c-7.3999023,6-11.6999512,10.0999756-11.5,11c0.5,2.3000488,12.8000488,2.5999756,25.8000488,0.5999756
	c9.6999512-1.5,34-6.5,48.6999512-10c9.5-2.2999268,44.3000488-9.0999756,58.3000488-11.4000244
	c52.8000488-8.7999268,103.1999512-13.3999023,164-15.0999756c20.4000244-0.5,125.8000488-1,238.0999756-1H1969l1.5999756-4.7999268
	c0.9000244-2.6000977,4.8000488-13.9000244,8.7000732-25.2000732C2001.7000732,1685.2000732,2011.5,1637.9000244,2015.5,1575
	c2.0999756-31.9000244-0.0999756-50.0999756-6.4000244-54.5c-2.8999023-2.0999756-3.3999023-1.9000244-4.1999512,1.2000732
	c-1.3000488,5.5-10.6999512,27.7999268-17,40.6999512C1975.4000244,1587.8000488,1956.5,1616,1939.7000732,1634
	c-36.6000977,39.4000244-73,60-122.3000488,69.2000732c-11.1999512,2.0999756-14.1999512,2.1999512-108.1999512,2.5
	C1613,1706.0999756,1612.5,1706.0999756,1606.2000732,1704c-15.1000977-5.0999756-26.9000244-17.1999512-31.2000732-31.9000244
	c-1.4000244-4.7999268-1.5999756-16.5-1.5999756-98.0999756v-92.6999512l19.3000488-4.5999756
	c21.0999756-5.1000977,37.5999756-8.7000732,50.6999512-11.2000732c4.6999512-0.9000244,10.3000488-2,12.5-2.5
	c3.5-0.7999268,20.3000488-3.5999756,51-8.5c63.9000244-10.1999512,151-17.1999512,243.4000244-19.5
	c29.2999268-0.6999512,41.9000244-1.4000244,42.9000244-2.1999512c2.5-2.0999756,1-9.7000732-3.3000488-16.8000488
	c-7.4000244-12.0999756-14.6999512-20.2999268-23.0999756-25.6999512
	C1956,1383.4000244,1943.2000732,1377.2000732,1928.4000244,1371.5c-6.8000488-2.5999756-14.9000244-6-18-7.5
	c-23.3000488-11.9000244-34.1999512-41.2999268-29.5999756-80c0.9000244-7.4000244,2.1999512-16.0999756,2.7999268-19.1999512
	c1.1000977-5.5,1.1000977-5.9000244-1.2999268-8.4000244c-2.5999756-2.8000488-7.8000488-5.8000488-14.3000488-8.0999756
	C1856.0999756,1244.0999756,1824.2000732,1242.9000244,1796.4000244,1245.5999756z"/>
<path d="M4799.3999023,1245.5c-13.699707,2.0999756-25.2998047,6.9000244-28.5,11.9000244
	c-1.2998047,1.9000244-1.199707,3.4000244,0.7001953,12.6999512c1.7001953,8.3000488,2.1000977,14.2000732,2.2001953,29.4000244
	c0.0996094,17-0.2001953,19.9000244-2.2001953,27c-3.3999023,11.7000732-8.6000977,21-16.2001953,28.5999756
	c-7.199707,7.3000488-12,9.9000244-32,17.4000244C4710,1377.5,4696,1384.5999756,4685.2001953,1391.7000732
	c-10.3999023,7-25.800293,28.6999512-25.800293,36.5c0,3.1999512,2.300293,5.7999268,5.300293,5.7999268
	c20.199707,0.2000732,87,2.3000488,108.699707,3.5c38.9003906,2,111.9003906,8.0999756,120.5,10
	c1.1000977,0.2000732,7,0.9000244,13,1.5c6.1000977,0.5999756,14.5,2.0026855,14.5,2.0026855s0-5.0026855,0-97.90271
	c0-54,0-98.0999756,0-98.0999756s-5.7998047-0.9000244-12.0996094-2.0999756
	C4864.6000977,1244.8000488,4822.7001953,1242,4799.3999023,1245.5z"/>
<path d="M5188.3999023,1440.3000488v76.2999268l12.300293,4.8000488c72,28.4000244,154,70.3000488,213.6000977,109.3000488
	c7.8999023,5.1999512,14.5,9.1999512,14.7998047,9c1.2998047-1.4000244-17.5-38.9000244-30.7001953-61.2000732
	C5352,1500.4000244,5292.5,1435.3000488,5221.800293,1385.3000488c-12.6000977-9-30.6948242-21.7987061-33.4003906-21.7987061
	C5188.3999023,1398.3000488,5188.3999023,1398.3000488,5188.3999023,1440.3000488z"/>
<path class="st0" d="M1609.1342773,2407.7490234c-0.661499-1.0073242-1.5753174-1.9504395-2.7421875-2.7543945
	c-9.293335-4.1132812-19.7213135-6.8574219-30.1358643-10.3808594c-2.7351074-1.0449219-5.1234131-2.0473633-6.65625-2.8137207
	c-16.7999268-8.3000488-28.5998535-21.8999023-33.5998535-38.6999512c-1.4001465-4.9001465-1.6000977-17.5-1.6000977-119.6000977
	c0-30.0625-0.0170898-52.4760742,0.0437012-69.3774414c0.029541-5.1230469,0.0585938-10.2463379,0.0925293-15.3676758
	c0.3525391-37.8928223,1.5877686-37.270752,5.8637695-45.7548828c8.4000244-16.6000977,23.5-27.6999512,47-34.5
	c4.8308105-1.3991699,8.8442383-2.7304688,12.1026611-4.0078125c1.4344482-0.473877,2.869873-0.9401855,4.3031006-1.4257812
	c2.1101074-1.1398926,4.7047119-2.1459961,6.2647705-4.0061035c1.8299561-3.5300293,0.1378174-6.9362793-3.3521729-9.0761719
	c-89.3137207,0-178.4841309,0-268.1478271,0.0761719c-4.3299561,4.8798828-3.6600342,9.0500488,2,12.5
	c7.2486572,3.8481445,24.9190674,7.3757324,32.458252,11.1853027c2.0018311,0.8039551,3.9370117,1.6828613,5.8328857,2.604248
	c6.2514648,3.2507324,10.9291992,6.888916,16.0383301,12.0500488c9.1000977,9.1000977,13.6999512,17.2001953,16,28.3000488
	c2.1999512,10.1000977,2.1999512,223.5,0,233.6000977c-2.3000488,11.1000977-6.8999023,19.1000977-16,28.1999512
	c-3.427002,3.427002-6.6508789,6.2062988-10.2595215,8.6503906c-3.7214355,2.3789062-7.7370605,4.5161133-12.0699463,6.4099121
	c-15.958374,5.5537109-28.6268311,8.3708496-34,12c-3.8098145,2.880127-3.1732178,9.3256836-0.1573486,10.4396973
	c90.4536133,0,179.2600098,0.0239258,269.9868164,0c1.5895996-1.5083008,2.1791992-3.4262695,1.8862305-5.3430176
	C1610.2772217,2409.6252441,1609.9207764,2408.6728516,1609.1342773,2407.7490234z"/>
<path class="st0" d="M2464.3361816,2405.0185547c-8.2121582-4.3447266-17.9841309-6.0158691-32.0053711-11.4848633
	c-2.4091797-0.9375-4.7971191-1.9465332-7.1401367-3.0551758c-14.0656738-7.7189941-25.0065918-20.2355957-29.8503418-34.4145508
	c-1.546875-5.4970703-2.5646973-11.8041992-2.9404297-19.0720215v-103.8918457c0-111.9001465,0-113.8000488,2.1000977-121.7001953
	c1.6479492-6.2255859,3.8964844-11.7036133,6.9641113-16.7119141c5.7504883-8.3984375,13.517334-16.2209473,20.8666992-20.1542969
	c9.9206543-5.8334961,21.8249512-8.2844238,27.8249512-12.3745117c3.7402344-2.7055664,5.6977539-8.7373047,0.3024902-12.1459961
	c-60.668457,0-120.4138184,0.0026855-180.5583496,0c-28.5600586,64.7800293-57.9919434,131.6225586-87.1020508,196.1726074
	c-29.3999023-64.8000488-58.1970215-130.9521484-86.467041-196.1520996c-63.3299561,0-126.6697998,0-189.9998779,0
	c-2.2808838,3.704834-2.5212402,6.1899414-0.7038574,8.5734863c0.6696777,1.3696289,1.7524414,2.6154785,3.1729736,3.4929199
	c1.7000732,1,7.9000244,3.7998047,13.7000732,6c23,9,35.3999023,22.0998535,41.5998535,43.8999023
	c1.6999512,6.1000977,1.8000488,13.1000977,1.8000488,121v104.4780273
	c-0.0095215,0.7592773-0.0192871,1.5114746-0.0288086,2.2717285c-0.2509766,15.9001465-13.90625,44.8815918-39.7548828,52.8205566
	c-19.5093994,7.3076172-29.4561768,8.8535156-33.4510498,12.2255859c-2.7740479,2.545166-3.7808838,5.1833496-2.8056641,7.7854004
	c0.0855713,0.3027344,0.1968994,0.6086426,0.3404541,0.9187012l1.1999512,2.5h77.3999023
	c11.4206543,0,21.1462402,0,29.4526367-0.0065918c16.0209961,0.003418,32.026123,0.0065918,48.0783691,0.0065918
	c3.0662842-3.6923828,3.4483643-9.8991699-4.763916-14.0053711c-1.1408691-0.4445801-2.2407227-0.9191895-3.3217773-1.4074707
	c-1.8776855-1.0632324-4.1181641-2.2663574-6.8452148-3.6870117c-0.5109863-0.2692871-1.0117188-0.5495605-1.5083008-0.8347168
	c-6.7028809-4.3269043-11.9248047-9.5783691-15.9121094-15.2409668c-1.4570312-2.223877-2.8154297-4.6245117-4.0795898-7.2243652
	c-1.3208008-2.7600098-2.411377-4.9038086-3.3117676-7.152832c-0.8781738-2.4934082-1.5749512-4.9855957-2.1044922-7.4431152
	c-0.6506348-3.5771484-1.0993652-8.2102051-1.4030762-14.9755859c-0.2250977-10.7539062-0.409668-21.3867188-0.5566406-31.9272461
	c-0.0717773-17.0996094-0.0014648-40.1027832,0.0759277-71.6013184l0.2954102-106.3222656
	c42.0881348,93.8320312,83.8966064,187.7839355,125.4354248,281.855957
	c3.9699707,1.0400391,8.4543457-0.9365234,11.8144531-3.6464844c6.9816895-5.9606934,12.612793-13.1337891,18.4853516-23.972168
	c4.5666504-7.5534668,20.454834-43.3032227,111.2001953-246.3813477
	c0.2102051,15.0297852,0.3474121,30.0578613,0.4362793,45.0849609L2270.0998535,2247l-0.0629883,33.8835449
	c-0.2563477,23.7199707-0.6501465,47.4370117-1.2060547,71.1501465c-1.9099121,17-9.0039062,30.9743652-22.5,41.5
	c-11.6179199,7.6652832-11.8566895,4.9199219-19.9255371,12.0100098c-2.7058105,2.8681641-2.833252,6.0209961-1.5576172,8.4111328
	c0.0522461,0.1489258,0.0930176,0.2932129,0.1523438,0.4453125c0.0393066,0.0917969,0.1276855,0.1784668,0.2854004,0.2602539
	c0.3430176,0.4916992,0.7434082,0.9445801,1.1994629,1.3395996c79.8461914,0,160.105957,0,239.8288574,0
	C2470.9926758,2411.7866211,2467.8693848,2406.8010254,2464.3361816,2405.0185547z"/>
<path class="st0" d="M3151.5913086,2146.1164551c-5.2900391-22.0900879-16.7900391-40.25-34.5-54.5
	c-28.1828613-21.7155762-59.6965332-34.9030762-94.5441895-39.5639648L3019.8999023,2051.5l-1.9255371-0.0046387
	c-3.2666016-0.3640137-6.5588379-0.6621094-9.8830566-0.8789062c-80.3300781-0.5-160.2976074-0.7338867-240.6276855-0.5639648
	c-2.4829102,2.0402832-4.2333984,7.1967773,0.7241211,11.5336914c9.3303223,6.1950684,9.7956543,3.9868164,27.9150391,12.5810547
	c2.0561523,1.1425781,3.9816895,2.3903809,5.7856445,3.7226562c0.0627441,0.0466309,0.1245117,0.0944824,0.1870117,0.1413574
	c0.4006348,0.298584,0.7900391,0.6044922,1.1784668,0.9111328c0.2944336,0.2346191,0.5893555,0.4685059,0.8820801,0.7111816
	c0.0681152,0.0561523,0.1342773,0.1137695,0.2019043,0.170166c0.559082,0.4672852,1.1184082,0.9555664,1.6791992,1.4572754
	c13.9216309,12.5983887,19.0905762,30.3774414,19.902832,40.8339844L2826.1999512,2228.5
	c0.1672363,58.6452637-0.0153809,100.6259766-0.4309082,115.0656738
	c-0.3120117,18.1279297-17.1535645,40.5231934-39.6777344,50.0507812
	c-13.1291504,5.1157227-24.3652344,7.5029297-31.4106445,10.7619629c-4.8676758,2.6137695-5.6069336,7.2927246-3.5859375,10.4597168
	c0.75,0.6298828,1.1889648,0.8666992,2.1088867,1.2368164c45.2387695,0,90.7878418,0.0490723,135,0
	c45.6923828,0.0710449,87.7241211,0,134.1884766,0c2.7373047-1.260498,4.050293-8.4780273-2.3007812-11.4584961
	c-6.3369141-3.0725098-12.5581055-4.588623-30.1367188-10.3837891c-3.9765625-1.637207-7.4443359-3.298584-10.5549316-5.0549316
	c-9.5546875-5.9919434-18.2485352-15.1020508-24.1679688-24.1525879c-1.7609863-3.2131348-3.1958008-6.5974121-4.3317871-10.2250977
	c-2.5-7.8000488-2.5-8.3000488-2.5-44.8000488v-36.8000488l2.6777344-0.0407715
	c18.4926758-0.1777344,34.1804199-0.1738281,53.0327148-0.4851074c24.7099609-1.4299316,52.3510742-7.1477051,74.980957-17.0576172
	c25.5100098-10.8200684,46.0100098-27.6599121,61.5-50.5
	C3151.7312012,2186.8664551,3155.4013672,2167.1965332,3151.5913086,2146.1164551z M3011.1000977,2210.5
	c-8.4001465,12.3000488-23.300293,24.1999512-37,29.6000977C2969,2242.1000977,2955,2245,2950.6999512,2245h-2.3000488v-83.5V2078
	h5.8999023c3.6000977,0,9.300293,1,14.300293,2.6000977c23.5,7.2998047,43,25.7998047,52.3999023,49.5
	C3031.5,2156.9001465,3028,2185.5,3011.1000977,2210.5z"/>
<path class="st0" d="M3958.4521484,2407.996582c-0.4025879-0.6845703-0.920166-1.3049316-1.5522461-1.7966309
	c-0.0263672-0.0224609-0.0734863-0.0510254-0.105957-0.0751953c-1.5253906-1.3388672-3.5209961-2.3659668-5.6953125-3.0490723
	c-1.7233887-0.4750977-3.4387207-0.9733887-5.1501465-1.4836426c-2.3078613-0.8234863-4.8081055-1.6743164-7.3483887-2.4919434
	c-17.4001465-5.6000977-25.3000488-9.8000488-33.4001465-17.6000977c-4.8088379-4.6188965-8.4580078-9.6040039-13.25-18.8444824
	C3844.1821289,2255.9760742,3796.6398926,2148.7265625,3748.8535156,2042c-41.0769043,0-122.253418,0-122.253418,0l0,0l0,0
	l0.0166016,0.0374756l15.8356934,35.8934326l-3.6916504,8.1328125c0,0-79.552002,177.342041-119.1621094,267.5119629
	c-8.015625,18.1484375-17.638916,31.1196289-35.3789062,39.529541c-10.1062012,4.105957-26.4616699,8.1733398-33.1210938,11.970459
	c-3.5183105,1.6855469-5.8701172,6.7392578-1.6801758,10.9992676c52.4243164,0,105.8354492,0,157.1816406,0.4775391
	c4.1298828-4.1398926,1.5385742-10.4848633-3.3620605-12.4887695c-11.5544434-4.2016602-23.7770996-6.9709473-34.6391602-13.0344238
	c-11.0991211-6.0166016-13.2668457-19.7150879-9.6862793-32.713623c0.2578125-0.8991699,0.5480957-1.842041,0.8779297-2.8442383
	c0.0375977-0.1101074,0.0722656-0.2209473,0.1108398-0.3308105c8.6855469-20.0141602,25.6445312-58.1384277,25.6445312-58.1384277
	h0.0131836l77.0410156,0.1977539l76.5395508-0.1008301h0.0090332c0,0,16.7099609,38.6765137,25.4499512,57.4765625
	c2.7958984,6.5170898,3.5307617,10.4121094,3.4404297,17.2121582c0.234375,5.6135254-3.6213379,13.2333984-8.2990723,17.8212891
	c-4.4719238,3.4660645-11.458252,6.3203125-24.0400391,10.3908691c-7.3000488,2.3000488-14.3999023,5.1000977-15.8000488,6.1999512
	c-0.637207,0.4958496-1.1586914,1.1223145-1.5627441,1.8139648c-1.6381836,2.2202148-1.7666016,5.935791,1.2915039,8.4658203
	c79.7314453,0.0727539,158.7739258,0.0334473,238.0537109,0.012207c1.3701172-1.4399414,2.0515137-2.1218262,2.0268555-4.4372559
	C3959.7094727,2410.5388184,3959.2434082,2409.1855469,3958.4521484,2407.996582z M3722.6850586,2259.9567871l-120.675293,0.0351562
	c0,0,40.2392578-91.4475098,60.4394531-136.7375488C3682.6191406,2168.4343262,3722.6850586,2259.9567871,3722.6850586,2259.9567871
	z"/>
<path d="M4438.8999023,2051.6000977c-55.199707,7.8000488-97.5,27.8000488-131.5,62.3000488
	c-33,33.3999023-50.2998047,74.0998535-50.2998047,118.5998535c-0.1000977,43.1999512,17,84.3000488,48.7001953,117.1999512
	c32.5996094,33.9001465,71.199707,54.1000977,121.2998047,63.5c10.5361328,1.7165527,16.0483398,2.9001465,43.4482422,2.8000488
	c32.800293,0,39.3710938-2.0493164,63.4516602-7.3000488c41.6000977-10.3999023,77.8999023-34.7998047,99.300293-66.7998047
	c7.3999023-11,11.199707-18.2001953,15.199707-29c4.706543-12.3325195,4.1333008-14.0195312-1.2558594-14.9206543
	c-3.640625-0.4655762-3.4116211,0.0576172-8.2441406,8.6206055c-18.3999023,31.5998535-47.7998047,52.6999512-85.1000977,61
	c-11.3999023,2.5998535-41.5,2.5998535-53.5,0c-43.199707-9.1999512-75.8999023-33.8000488-94.5996094-70.9001465
	c-10.7001953-21.3999023-14.9003906-40-14.9003906-66.1999512c0-43.5,13.2001953-79.5,38.9003906-106.3000488
	c14.0996094-14.6999512,28.8999023-24.0998535,47.5-30.1999512c12.699707-4.0998535,23.7998047-5.3999023,41.0996094-4.6999512
	c46.2001953,2,80.800293,26.1999512,107.1000977,75c6.6000977,12.1999512,8.8999023,14.5,10.800293,10.8999023
	c3.5-6.5998535,3.7998047-45.1999512,0.5-76.0998535c-1.7001953-15.9001465-3.3955078-24.6040039-5.7954102-26.6040039
	c-2.1000977-1.6999512-20.3046875,0.8039551-28.3046875,3.6040039c-9.1000977,3.1999512-14.3999023,2.0998535-45.800293-9.4001465
	c-16.699707-6.1999512-30.2998047-9.8999023-47.5-12.8999023c-9.3999023-1.6999512-17.1655273-3.592041-39.965332-3.7919922
	C4454.034668,2049.8081055,4440.6000977,2051.4001465,4438.8999023,2051.6000977z"/>
<path class="st0" d="M5388.4013672,2050.0039062c-138,0-413.003418,0.0041504-413.003418,0.0041504s-0.5,72.5722656,0,108.9023438
	c2.2299805,4.9145508,9.7099609,4.4609375,12.7978516,0.1401367c5.9360352-7.0664062,10.5522461-26.3457031,20.0131836-38.2600098
	c11.4682617-15.4328613,31.7641602-26.3059082,50.3911133-27.8215332c0.855957-0.0581055,1.7460938-0.1123047,2.6904297-0.1608887
	c7.7080078-0.1960449,15.6030273-0.4008789,23.5385742-0.5693359c0.9375-0.0126953,1.8847656-0.0256348,2.8706055-0.0388184
	l26.8720703-0.3178711c2.3095703,0.0009766,4.609375,0.0087891,6.8901367,0.0283203
	c0.0058594,3.0610352,0.0039062,6.1218262,0.0092773,9.1828613l-0.3710938,119.1066895
	c-0.2348633,110.7851562,0.0200195,128.8945312-3.1625977,137.6604004
	c-0.2270508,0.5578613-0.4511719,1.1181641-0.6899414,1.6657715c-0.7724609,1.6633301-1.7089844,3.161377-2.8476562,5.2739258
	C5110,2373.1000977,5102.699707,2381,5094,2386.8000488c-5.9946289,3.996582-11.4042969,6.635498-21.2119141,10.0031738
	c-9.9243164,3.1713867-17.3945312,4.7678223-24.1191406,8.5793457c-4.6547852,2.5366211-4.2910156,7.8183594-1.2470703,10.6235352
	c90.0654297,0.041748,180.328125,0.2805176,269.9580078-0.0180664c0.1381836-0.1633301,0.2446289-0.3249512,0.3676758-0.4875488
	l0.1523438-0.0004883v-0.2021484c3.7216797-5.1665039-0.015625-9.9331055-7.1977539-12.5263672
	c-10.2998047-3.4899902-18.9018555-5.7097168-27.2094727-8.9411621
	c-17.9194336-7.2856445-32.7583008-24.0837402-38.0317383-38.0131836c-0.0849609-0.239502-0.1796875-0.4770508-0.2607422-0.717041
	l-0.5273438-1.5817871c-0.8935547-2.8964844-1.3452148-5.6345215-1.2705078-8.0859375
	c0-89.0769043-0.0078125-253.4084473-0.0078125-253.4084473s25.1474609-0.0717773,45.1635742,0.1506348
	c9.1943359,0.189209,16.5507812,0.5073242,18.8417969,0.8254395c19.800293,3.1999512,37.2001953,13.1999512,48.300293,27.8999023
	c2.3999023,3.2001953,6.2998047,10.3000488,8.5996094,15.7001953c6.8725586,16.0354004,8.2880859,19.2241211,10.5541992,21.8769531
	c5.8842773,9.3190918,13.5473633,0.5515137,13.5473633,0.5515137S5388.4213867,2086.3581543,5388.4013672,2050.0039062z"/>
</svg>
